<svg width="44" height="44" viewBox="0 0 44 44" fill="none" xmlns="http://www.w3.org/2000/svg">
<path d="M13 3.05176e-05C5.83248 3.05176e-05 0 5.83251 0 13V31C0 38.1675 5.83248 44 13 44H31C38.1675 44 44 38.1675 44 31V13C44 5.83251 38.1675 3.05176e-05 31 3.05176e-05H13ZM13 2.00003H31C37.0865 2.00003 42 6.91355 42 13V31C42 37.0865 37.0865 42 31 42H13C6.91352 42 2 37.0865 2 31V13C2 6.91355 6.91352 2.00003 13 2.00003ZM34 8.00003C33.4696 8.00003 32.9609 8.21074 32.5858 8.58582C32.2107 8.96089 32 9.4696 32 10C32 10.5305 32.2107 11.0392 32.5858 11.4142C32.9609 11.7893 33.4696 12 34 12C34.5304 12 35.0391 11.7893 35.4142 11.4142C35.7893 11.0392 36 10.5305 36 10C36 9.4696 35.7893 8.96089 35.4142 8.58582C35.0391 8.21074 34.5304 8.00003 34 8.00003ZM22 11C15.9367 11 11 15.9367 11 22C11 28.0633 15.9367 33 22 33C28.0633 33 33 28.0633 33 22C33 15.9367 28.0633 11 22 11ZM22 13C26.9824 13 31 17.0176 31 22C31 26.9824 26.9824 31 22 31C17.0176 31 13 26.9824 13 22C13 17.0176 17.0176 13 22 13Z" fill="black"/>
</svg>
